<svg width="15" height="15" viewBox="0 0 15 15" fill="none" xmlns="http://www.w3.org/2000/svg">
<mask id="path-1-inside-1_17385_181" fill="white">
<path fill-rule="evenodd" clip-rule="evenodd" d="M14.0997 0.27329C14.7772 0.645909 15.0243 1.49719 14.6517 2.17468L8.33998 13.6505C7.57525 15.0409 5.604 15.1135 4.73919 13.783L0.826181 7.76298C0.404797 7.11469 0.588735 6.24755 1.23702 5.82617C1.8853 5.40479 2.75244 5.58872 3.17382 6.23701L6.44984 11.277L12.1983 0.825306C12.5709 0.147817 13.4222 -0.0993293 14.0997 0.27329Z"/>
</mask>
<path d="M14.6517 2.17468L17.1051 3.52405L17.1051 3.52405L14.6517 2.17468ZM14.0997 0.27329L15.4491 -2.18011L15.4491 -2.18012L14.0997 0.27329ZM8.33998 13.6505L10.7934 14.9999L10.7934 14.9999L8.33998 13.6505ZM4.73919 13.783L2.39155 15.309L2.39155 15.309L4.73919 13.783ZM0.826181 7.76298L-1.52146 9.28894H-1.52146L0.826181 7.76298ZM1.23702 5.82617L2.76298 8.17381L2.76299 8.17381L1.23702 5.82617ZM3.17382 6.23701L5.52147 4.71104L3.17382 6.23701ZM6.44984 11.277L4.1022 12.803L6.65016 16.7229L8.90325 12.6264L6.44984 11.277ZM12.1983 0.825306L9.7449 -0.524069L9.74489 -0.524067L12.1983 0.825306ZM17.1051 3.52405C18.223 1.49158 17.4815 -1.06226 15.4491 -2.18011L12.7503 2.72669C12.0728 2.35408 11.8257 1.5028 12.1983 0.825306L17.1051 3.52405ZM10.7934 14.9999L17.1051 3.52405L12.1983 0.825305L5.88657 12.3012L10.7934 14.9999ZM2.39155 15.309C4.40943 18.4134 9.00903 18.2442 10.7934 14.9999L5.88657 12.3012C6.14148 11.8377 6.79856 11.8135 7.08683 12.257L2.39155 15.309ZM-1.52146 9.28894L2.39155 15.309L7.08683 12.257L3.17382 6.23701L-1.52146 9.28894ZM-0.288948 3.47853C-2.2338 4.74268 -2.78561 7.34409 -1.52146 9.28894L3.17382 6.23701C3.59521 6.88529 3.41127 7.75243 2.76298 8.17381L-0.288948 3.47853ZM5.52147 4.71104C4.25731 2.76619 1.6559 2.21438 -0.288949 3.47853L2.76299 8.17381C2.1147 8.5952 1.24757 8.41126 0.826181 7.76298L5.52147 4.71104ZM8.79749 9.75107L5.52147 4.71104L0.826181 7.76298L4.1022 12.803L8.79749 9.75107ZM9.74489 -0.524067L3.99644 9.92767L8.90325 12.6264L14.6517 2.17468L9.74489 -0.524067ZM15.4491 -2.18012C13.4166 -3.29797 10.8628 -2.55653 9.7449 -0.524069L14.6517 2.17468C14.2791 2.85217 13.4278 3.09931 12.7503 2.72669L15.4491 -2.18012Z" fill="#C29974" mask="url(#path-1-inside-1_17385_181)"/>
</svg>
